# AST/ASF file generated using VICON BodyLanguage
# -----------------------------------------------
:version 1.10
:name VICON
:units
  mass 1.0
  length 0.45
  angle deg
:documentation
   .ast/.asf automatically generated from VICON data using
   VICON BodyBuilder and BodyLanguage model FoxedUp or BRILLIANT.MOD
:root
   order TX TY TZ RX RY RZ
   axis XYZ
   position 0 0 0  
   orientation 0 0 0 
:bonedata
  begin
     id 1 
     name lhipjoint
     direction 0.566809 -0.746272 0.349008 
     length 2.40479 
     axis 0 0 0  XYZ
  end
  begin
     id 2 
     name lfemur
     direction 0.34202 -0.939693 0  
     length 7.1578  
     axis 0 0 20  XYZ
    dof rx ry rz
    limits (-160.0 20.0)
           (-70.0 70.0)
           (-60.0 70.0)
  end
  begin
     id 3 
     name ltibia
     direction 0.34202 -0.939693 0   
     length 7.49137   
     axis 0 0 20   XYZ
    dof rx
    limits (-10.0 170.0)
  end
  begin
     id 4 
     name lfoot
     direction 0.0665746 -0.182912 0.980873   
     length 2.36784   
     axis -90 7.62852e-016 20   XYZ
    dof rx rz
    limits (-45.0 90.0)
           (-70.0 20.0)
  end
  begin
     id 5 
     name ltoes
     direction 1.53601e-011 -4.22058e-011 1   
     length 1.18966   
     axis -90 7.62852e-016 20   XYZ
    dof rx
    limits (-90.0 20.0)
  end
  begin
     id 6 
     name rhipjoint
     direction -0.550236 -0.756381 0.353735   
     length 2.37265  
     axis 0 0 0  XYZ 
  end
  begin
     id 7 
     name rfemur
     direction -0.34202 -0.939693 0   
     length 7.43386   
     axis 0 0 -20   XYZ
    dof rx ry rz
    limits (-160.0 20.0)
           (-70.0 70.0)
           (-70.0 60.0)
  end
  begin
     id 8 
     name rtibia
     direction -0.34202 -0.939693 0   
     length 7.50908   
     axis 0 0 -20   XYZ
    dof rx
    limits (-10.0 170.0)
 end
 begin
     id 9 
     name rfoot
     direction -0.0683029 -0.187661 0.979856   
     length 2.41173  
     axis -90 -7.62852e-016 -20   XYZ
    dof rx rz
    limits (-45.0 90.0)
           (-20.0 70.0)
  end
  begin
     id 10 
     name rtoes
     direction -1.53528e-011 -4.21968e-011 1   
     length 1.21082   
     axis -90 -7.62852e-016 -20   XYZ
    dof rx
    limits (-90.0 20.0)
  end
  begin
     id 11 
     name lowerback
     direction 0.013823 0.995423 -0.0945635   
     length 2.04495   
     axis 0 0 0   XYZ
    dof rx ry rz
    limits (-20.0 45.0)
           (-30.0 30.0)
           (-30.0 30.0)
  end
  begin
     id 12 
     name upperback
     direction 0.0276657 0.9994 -0.020853   
     length 2.05008   
     axis 0 0 0   XYZ
    dof rx ry rz
    limits (-20.0 45.0)
           (-30.0 30.0)
           (-30.0 30.0)
  end
  begin
     id 13 
     name thorax
     direction 0.019782 0.999531 0.0233827   
     length 2.06488   
     axis 0 0 0   XYZ
    dof rx ry rz
    limits (-20.0 45.0)
           (-30.0 30.0)
           (-30.0 30.0)
  end
  begin
     id 14 
     name lowerneck
     direction -0.0308541 0.994709 0.0979874   
     length 1.75553   
     axis 0 0 0   XYZ
    dof rx ry rz
    limits (-20.0 45.0)
           (-30.0 30.0)
           (-30.0 30.0)
  end
  begin
     id 15 
     name upperneck
     direction 0.0588398 0.995804 -0.0700903   
     length 1.76878   
     axis 0 0 0   XYZ
    dof rx ry rz
    limits (-20.0 45.0)
           (-30.0 30.0)
           (-30.0 30.0)
  end
  begin
     id 16
     name head
     direction 0.0209966 0.999159 -0.0352225  
     length 1.77193  
     axis 0 0 0   XYZ
    dof rx ry rz
    limits (-20.0 45.0)
           (-30.0 30.0)
           (-30.0 30.0)
  end
  begin
     id 17 
     name lclavicle
     direction 0.938182 0.335073 -0.0868338  
     length 3.58396  
     axis 0 0 0   XYZ
    dof ry rz
    limits (-20.0 10.0)
           (0.0 20.0)
  end
  begin
     id 18 
     name lhumerus
     direction 1 -4.48971e-011 -1.26313e-017   
     length 4.983   
     axis 180 -30 -90   XYZ
    dof rx ry rz
    limits (-60.0 90.0)
           (-90.0 90.0)
           (-90.0 90.0)
  end
  begin
     id 19
     name lradius
     direction 1 -4.48948e-011 -5.89033e-027   
     length 3.48356   
     axis 180 -30 -90   XYZ
    dof rx
    limits (-10.0 170.0)
  end
  begin
     id 20
     name lwrist
     direction 1 -4.48977e-011 -1.48983e-026   
     length 1.74178   
     axis 9.0955e-015 90 90   XYZ
    dof ry
    limits (-180.0 0.0)
 end
  begin
     id 21 
     name lhand
     direction 1 -4.49046e-011 -2.98066e-026   
     length 0.715259   
     axis 1.90115e-014 90 90   XYZ
    dof rx rz
    limits (-90.0 90.0)
           (-45.0 45.0)
  end
  begin
     id 22 
     name lfingers
     direction 1 -4.48907e-011 -5.95731e-026   
     length 0.576661   
     axis 3.80223e-014 90 90   XYZ
    dof rx
    limits (0.0 90.0)
  end
  begin
     id 23
     name lthumb
     direction 0.707107 -6.34963e-011 0.707107   
     length 0.827973   
     axis -90 45 -3.84942e-014   XYZ
    dof rx rz
    limits (-45.0 45.0)
           (-45.0 45.0)
  end
  begin
     id 24 
     name rclavicle
     direction -0.909637 0.398485 -0.11735   
     length 3.44819  
     axis 0 0 0   XYZ 
    dof ry rz
    limits (-10.0 20.0)
           (-20.0 0.0)
  end
  begin
     id 25 
     name rhumerus
     direction -1 -4.48978e-011 -1.09333e-027  
     length 5.2419   
     axis 180 30 90   XYZ
    dof rx ry rz
    limits (-90.0 60.0)
           (-90.0 90.0)
           (-90.0 90.0)
  end
  begin
     id 26 
     name rradius
     direction -1 -4.48953e-011 -7.61841e-027   
     length 3.44417   
     axis 180 30 90   XYZ
    dof rx
    limits (-10.0 170.0)
  end
  begin
     id 27 
     name rwrist
     direction -1 -4.48977e-011 -1.48983e-026   
     length 1.72209   
     axis 9.0955e-015 -90 -90   XYZ
    dof ry
    limits (-180.0 0.0)
  end
  begin
     id 28
     name rhand
     direction -1 -4.49027e-011 -2.98038e-026   
     length 0.622529   
     axis 1.90115e-014 -90 -90   XYZ
    dof rx rz
    limits (-90.0 90.0)
           (-45.0 45.0)
  end
  begin
     id 29
     name rfingers
     direction -1 -4.48838e-011 -5.95531e-026   
     length 0.501899   
     axis 3.80223e-014 -90 -90   XYZ
    dof rx
    limits (0.0 90.0)
  end
  begin
     id 30
     name rthumb
     direction -0.707107 -6.34937e-011 0.707107   
     length 0.720629   
     axis -90 -45 3.84942e-014   XYZ
    dof rx rz
    limits (-45.0 45.0)
           (-45.0 45.0)
  end
:hierarchy
  begin
    root lhipjoint rhipjoint lowerback
    lhipjoint lfemur
    lfemur ltibia
    ltibia lfoot
    lfoot ltoes
    rhipjoint rfemur
    rfemur rtibia
    rtibia rfoot
    rfoot rtoes
    lowerback upperback
    upperback thorax
    thorax lowerneck lclavicle rclavicle
    lowerneck upperneck
    upperneck head
    lclavicle lhumerus
    lhumerus lradius
    lradius lwrist
    lwrist lhand lthumb
    lhand lfingers
    rclavicle rhumerus
    rhumerus rradius
    rradius rwrist
    rwrist rhand rthumb
    rhand rfingers
  end

#!OML:ASF F:\VICON\USERDATA\Patient Classification 1\PLAYGROUND\JustinFriday\JustinFriday.ASF
:FULLY-SPECIFIED
:DEGREES
1095
root 36.5031 29.5091 -10.5178 40.4579 -76.2337 -28.7098
lowerback 49.8833 2.08217 -0.763378
upperback 5.97066 1.07198 0.732719
thorax -14.0184 0.00588529 0.783044
lowerneck -9.90432 10.189 -6.99384
upperneck -27.5007 12.6553 -5.41133
head -7.08902 6.83299 -0.976907
rclavicle 2.06736e-014 -2.78299e-015
rhumerus 45.9582 -1.92901 -78.6504
rradius 39.6788
rwrist 11.7152
rhand -32.7045 -0.599544
rfingers 7.12502
rthumb -5.92897 -30.4966
lclavicle 2.06736e-014 -2.78299e-015
lhumerus 67.7876 -19.8797 71.5082
lradius 23.4564
lwrist -32.7938
lhand -16.3068 -15.31
lfingers 7.12502
lthumb 9.90416 14.437
rfemur -48.0505 -0.861927 33.2149
rtibia 46.7412
rfoot -34.8962 -11.2312
rtoes 20.6984
lfemur -50.4705 5.61311 -14.432
ltibia 43.202
lfoot -34.3188 -13.4201
ltoes -3.23425
1096
root 36.5596 29.5321 -10.5183 40.5707 -76.2461 -28.9265
lowerback 49.8617 2.13536 -0.313161
upperback 5.77836 1.31924 0.31686
thorax -14.2259 0.107552 -0.00966215
lowerneck -9.39273 10.0047 -4.89775
upperneck -27.2592 12.242 -5.76794
head -6.88674 6.45903 -1.39495
rclavicle -2.54444e-014 2.06736e-014
rhumerus 46.0844 -3.14949 -79.4896
rradius 38.4228
rwrist 12.1389
rhand -32.9513 -0.743542
rfingers 7.12502
rthumb -6.16715 -30.6338
lclavicle -2.54444e-014 2.06736e-014
lhumerus 68.0527 -21.3287 69.7942
lradius 23.6961
lwrist -31.6154
lhand -17.8478 -12.5026
lfingers 7.12502
lthumb 8.4172 17.3096
rfemur -47.974 -1.0582 33.3033
rtibia 46.4922
rfoot -34.7427 -11.051
rtoes 20.7292
lfemur -49.8361 0.575672 -11.7926
ltibia 42.8957
lfoot -34.7416 -5.54367
ltoes -8.80334
1097
root 36.5967 29.5077 -10.5111 40.5475 -76.4063 -29.2407
lowerback 50.1335 1.90454 -0.502885
upperback 5.7489 0.944451 0.397885
thorax -14.3055 -0.0493525 0.347959
lowerneck -9.68889 10.1491 -5.59895
upperneck -27.1833 12.5608 -5.32942
head -6.90303 6.6425 -1.14616
rclavicle -1.66979e-014 9.54166e-015
rhumerus 47.1385 -2.34015 -80.2076
rradius 36.9238
rwrist 12.6239
rhand -32.7456 -0.477825
rfingers 7.12502
rthumb -5.96861 -30.3738
lclavicle -1.66979e-014 9.54166e-015
lhumerus 67.2033 -20.1856 72.226
lradius 22.5848
lwrist -34.1375
lhand -17.1148 -13.3005
lfingers 7.12502
lthumb 9.12454 16.4821
rfemur -47.7957 -1.02153 33.2323
rtibia 46.5144
rfoot -34.6005 -11.0498
rtoes 20.7995
lfemur -49.977 4.00252 -13.6543
ltibia 42.993
lfoot -34.4982 -9.90109
ltoes -7.02365
1098
root 36.6463 29.5085 -10.5068 39.9664 -76.4865 -28.8193
lowerback 49.9771 2.16142 -0.344481
upperback 5.93675 1.3067 0.330799
thorax -14.0584 0.0926055 0.0289225
lowerneck -9.38331 10.0678 -4.72922
upperneck -27.4129 12.2429 -6.09462
head -6.90473 6.46364 -1.52873
rclavicle 1.90833e-014 -5.56597e-015
rhumerus 47.9588 -3.68351 -80.7275
rradius 35.5699
rwrist 13.3346
rhand -32.5668 -0.100328
rfingers 7.12502
rthumb -5.79601 -30.0011
lclavicle 1.90833e-014 -5.56597e-015
lhumerus 68.4666 -21.1192 70.9562
lradius 22.4331
lwrist -33.0586
lhand -15.2721 -15.0691
lfingers 7.12502
lthumb 10.9023 14.6279
rfemur -47.7484 -0.99651 32.9964
rtibia 46.4398
rfoot -34.5026 -10.9024
rtoes 21.2377
lfemur -49.8134 2.53148 -13.1139
ltibia 42.9599
lfoot -34.3125 -8.46517
ltoes -6.71042
1099
root 36.6882 29.4658 -10.5043 39.9709 -76.545 -28.6975
lowerback 49.6864 2.2941 -0.462339
upperback 5.93318 1.44229 0.450796
thorax -14.0232 0.158563 0.153427
lowerneck -9.743 10.1088 -4.32469
upperneck -26.9801 12.2106 -6.62324
head -6.63383 6.44025 -1.71386
rclavicle -1.98785e-014 3.02153e-014
rhumerus 48.6229 -3.98511 -80.9197
rradius 34.4294
rwrist 13.7311
rhand -32.5176 -0.0694722
rfingers 7.12502
rthumb -5.7485 -29.9715
lclavicle -1.98785e-014 3.02153e-014
lhumerus 68.3571 -21.2471 71.6404
lradius 22.1692
lwrist -33.5231
lhand -14.8677 -16.4127
lfingers 7.12502
lthumb 11.2923 13.2633
rfemur -48.1456 -0.930315 32.926
rtibia 46.5085
rfoot -34.5275 -10.7748
rtoes 21.2533
lfemur -50.6757 6.11835 -15.1644
ltibia 43.1356
lfoot -34.1696 -12.7885
ltoes -5.21828
